<svg xmlns="http://www.w3.org/2000/svg" xmlns:xlink="http://www.w3.org/1999/xlink" width="500" zoomAndPan="magnify" viewBox="0 0 375 187.499995" height="250" preserveAspectRatio="xMidYMid meet" version="1.0"><defs><g/><clipPath id="07ca42b0cf"><path d="M 275.125 16.238281 L 363.386719 16.238281 L 363.386719 96.273438 L 275.125 96.273438 Z M 275.125 16.238281 " clip-rule="nonzero"/></clipPath></defs><g clip-path="url(#07ca42b0cf)"><path fill="#ff3131" d="M 361.292969 48.425781 C 361.277344 48.386719 361.25 48.355469 361.210938 48.332031 C 359.246094 47.222656 357.164062 46.660156 355.019531 46.660156 C 352.199219 46.660156 349.363281 47.652344 346.589844 49.609375 C 346.367188 49.769531 346.101562 49.851562 345.828125 49.851562 C 345.398438 49.851562 344.996094 49.644531 344.746094 49.292969 C 344.328125 48.695312 344.46875 47.871094 345.066406 47.449219 C 348.386719 45.105469 351.453125 43.964844 354.4375 43.964844 C 355.898438 43.964844 357.378906 44.238281 358.972656 44.796875 C 359.050781 44.824219 359.132812 44.800781 359.183594 44.738281 C 359.234375 44.675781 360.429688 43.121094 359.785156 39.339844 C 359.5 37.980469 358.980469 36.871094 358.242188 36.050781 C 356.75 34.164062 355.242188 33.765625 354.238281 33.765625 C 353.613281 33.765625 353.21875 33.921875 353.203125 33.929688 C 353.164062 33.941406 353.132812 33.96875 353.113281 34.003906 C 351.667969 36.273438 349.992188 37.796875 346.933594 39.628906 C 346.726562 39.753906 346.492188 39.816406 346.253906 39.816406 C 345.789062 39.816406 345.355469 39.570312 345.117188 39.175781 C 344.742188 38.546875 344.949219 37.734375 345.574219 37.359375 C 349.269531 35.148438 350.738281 33.695312 351.628906 31.359375 C 352.078125 29.710938 351.523438 27.488281 350.34375 26.199219 L 350.109375 25.910156 C 348.765625 24.257812 346.273438 21.1875 339.972656 19.570312 C 339.097656 19.292969 338.207031 19.152344 337.316406 19.152344 C 334.75 19.152344 333.074219 20.308594 333.003906 20.359375 C 332.9375 20.40625 332.90625 20.492188 332.933594 20.574219 C 333.183594 21.308594 333.945312 23.542969 333.171875 26.046875 C 333 26.601562 332.488281 26.976562 331.90625 26.976562 C 331.773438 26.976562 331.644531 26.957031 331.515625 26.917969 C 330.820312 26.699219 330.429688 25.957031 330.644531 25.261719 C 331.160156 23.605469 331.046875 22.140625 330.308594 20.789062 C 329.34375 19.019531 328.003906 17.828125 326.21875 17.148438 C 324.519531 16.425781 321.824219 16.265625 320.734375 16.226562 C 313.730469 16.265625 308.734375 16.71875 302.414062 18.980469 C 301.605469 19.242188 300.972656 19.773438 300.636719 20.46875 C 300.238281 21.296875 300.246094 22.324219 300.664062 23.445312 C 300.667969 23.460938 300.683594 23.503906 300.710938 23.578125 C 301.199219 25.007812 301.675781 26.292969 302.132812 27.394531 C 302.265625 27.722656 302.265625 28.082031 302.132812 28.40625 C 301.996094 28.734375 301.742188 28.988281 301.414062 29.121094 C 301.253906 29.1875 301.082031 29.222656 300.910156 29.222656 C 300.378906 29.222656 299.898438 28.902344 299.6875 28.402344 C 299.308594 27.5 298.125 24.539062 298.117188 24.511719 C 298.09375 24.453125 297.546875 23.082031 295.785156 23.082031 C 294.460938 23.082031 292.816406 23.867188 290.90625 25.421875 C 288.359375 27.390625 287.0625 29.175781 287.042969 30.726562 C 287.03125 31.816406 287.683594 32.359375 287.730469 32.394531 C 288.253906 32.730469 291.105469 34.902344 292.296875 36.230469 C 292.792969 36.78125 292.777344 37.605469 292.257812 38.101562 C 292.011719 38.339844 291.6875 38.46875 291.34375 38.46875 C 290.980469 38.46875 290.640625 38.324219 290.390625 38.0625 C 287.433594 34.972656 285.007812 33.46875 282.976562 33.46875 C 282.691406 33.46875 282.410156 33.5 282.144531 33.5625 C 281.355469 33.742188 280.078125 34.648438 279.308594 35.847656 C 276.59375 39.371094 275.710938 42.136719 275.460938 46.867188 C 275.308594 49.699219 276.074219 52.464844 276.929688 53.664062 C 278.136719 55.351562 279.359375 56.308594 279.820312 56.644531 C 279.820312 56.644531 280.191406 56.878906 280.335938 56.769531 C 281.542969 55.820312 282.925781 55.324219 284.625 55.324219 C 285.640625 55.324219 286.789062 55.492188 288.035156 55.832031 C 288.367188 55.921875 288.644531 56.136719 288.8125 56.441406 C 288.988281 56.753906 289.03125 57.128906 288.929688 57.472656 C 288.765625 58.03125 288.246094 58.421875 287.660156 58.421875 C 287.535156 58.421875 287.410156 58.402344 287.289062 58.367188 C 286.417969 58.113281 285.601562 58.003906 284.871094 57.984375 C 284.148438 57.964844 282.832031 58.03125 282.234375 58.707031 C 282.207031 58.738281 282.183594 58.769531 282.171875 58.808594 C 282.164062 58.84375 282.023438 62.0625 286.605469 63.707031 C 290.453125 65.085938 292.453125 65.128906 300.816406 65.128906 C 302.050781 65.128906 303.40625 65.117188 305.085938 65.089844 C 305.507812 65.078125 306.105469 64.867188 306.488281 64.425781 C 306.777344 64.089844 306.902344 63.667969 306.847656 63.226562 C 306.84375 62.515625 306.953125 61.867188 307.199219 61.1875 C 308.199219 58.378906 310.21875 56.546875 313.742188 55.238281 C 313.890625 55.183594 314.042969 55.15625 314.199219 55.15625 C 314.75 55.15625 315.25 55.503906 315.441406 56.019531 C 315.5625 56.351562 315.550781 56.710938 315.402344 57.03125 C 315.253906 57.351562 314.992188 57.597656 314.660156 57.71875 C 311.964844 58.71875 310.308594 60.144531 309.726562 61.960938 C 308.75 65.027344 311.011719 68.390625 311.039062 68.417969 C 317.773438 75.015625 330.855469 75.203125 331.511719 73.375 C 332.066406 72.015625 332.445312 69.855469 331.109375 67.292969 C 329.019531 63.28125 321.921875 63.03125 321.847656 63.027344 C 321.121094 63.007812 320.542969 62.398438 320.5625 61.671875 C 320.582031 60.960938 321.175781 60.382812 321.917969 60.382812 C 322.273438 60.394531 330.636719 60.667969 333.453125 66.070312 C 334.984375 69.003906 334.769531 71.613281 334.316406 73.289062 C 334.210938 73.742188 334.292969 74.195312 334.535156 74.507812 C 334.691406 74.703125 334.984375 74.9375 335.503906 74.9375 C 335.503906 74.9375 340.136719 74.96875 343.921875 74.179688 C 344.433594 74.074219 344.921875 74.453125 345.003906 74.96875 C 345.082031 75.484375 344.730469 75.964844 344.214844 76.046875 C 338.65625 76.914062 333.785156 77.351562 329.554688 77.351562 C 324.445312 77.351562 320.273438 76.714844 316.960938 75.441406 C 317.015625 77.777344 317.808594 79.816406 319.253906 81.480469 C 319.261719 81.496094 319.269531 81.507812 319.277344 81.519531 C 319.761719 82.023438 320.480469 82.742188 321.140625 83.339844 C 321.644531 83.800781 324.027344 85.320312 324.644531 85.695312 C 325.84375 86.390625 331.285156 89.738281 331.808594 90.078125 C 334.203125 91.621094 334.910156 93.292969 334.984375 93.394531 C 335.242188 93.734375 335.375 94.738281 335.375 94.738281 C 335.589844 95.636719 336.402344 96.304688 337.367188 96.304688 C 338.5 96.300781 339.414062 95.382812 339.410156 94.25 C 339.410156 94.25 339.441406 91.949219 338.546875 90.375 C 338.402344 90.082031 336.515625 86.992188 334.339844 85.3125 C 333.675781 84.800781 332.117188 83.660156 332.117188 83.660156 L 332.109375 83.65625 C 331.929688 83.535156 331.875 83.296875 331.988281 83.113281 C 332.105469 82.925781 332.351562 82.867188 332.542969 82.980469 C 332.542969 82.980469 337.136719 86.207031 340.015625 85.40625 C 344.25 84.226562 349.792969 81.441406 349.792969 75.175781 C 349.792969 74.246094 349.699219 73.371094 349.523438 72.546875 C 350.109375 72.234375 350.695312 71.878906 351.277344 71.472656 C 351.960938 70.925781 352.164062 70.246094 352.214844 69.773438 C 352.285156 69.097656 352.089844 68.382812 351.703125 67.910156 L 348.914062 64.316406 L 348.878906 64.28125 C 348.300781 63.542969 347.539062 63.386719 347.003906 63.386719 C 346.546875 63.386719 346.1875 63.496094 345.996094 63.570312 C 345.015625 64.066406 343.980469 64.472656 342.929688 64.773438 C 342.238281 64.972656 341.488281 64.554688 341.292969 63.871094 C 341.195312 63.53125 341.234375 63.175781 341.402344 62.867188 C 341.574219 62.558594 341.855469 62.332031 342.195312 62.234375 C 344.597656 61.542969 348.925781 59.628906 350.980469 54.597656 C 351.183594 54.097656 351.664062 53.773438 352.207031 53.773438 C 352.375 53.773438 352.542969 53.804688 352.703125 53.871094 C 353.378906 54.144531 353.703125 54.917969 353.429688 55.59375 C 352.769531 57.210938 351.867188 58.671875 350.730469 59.964844 C 350.214844 60.800781 350.28125 61.667969 350.945312 62.621094 L 352.765625 64.988281 C 352.792969 65.023438 352.824219 65.046875 352.863281 65.054688 C 352.894531 65.066406 353.605469 65.265625 354.621094 65.265625 C 355.992188 65.265625 357.929688 64.894531 359.378906 63.117188 C 362.925781 58.878906 363.097656 55.210938 363.222656 52.535156 C 363.234375 52.265625 363.246094 52.007812 363.261719 51.730469 C 363.105469 49.769531 361.851562 48.773438 361.292969 48.425781 Z M 307 46.667969 C 305.296875 48.351562 303.414062 49.59375 301.410156 50.355469 C 301.386719 50.363281 301.367188 50.375 301.351562 50.390625 C 300.429688 50.894531 300.109375 51.585938 300.28125 52.699219 L 301.039062 57.019531 C 301.109375 57.367188 301.039062 57.71875 300.839844 58.011719 C 300.640625 58.304688 300.34375 58.507812 299.996094 58.574219 C 299.285156 58.714844 298.582031 58.234375 298.445312 57.53125 L 297.617188 52.867188 C 297.363281 51.886719 296.421875 51.367188 295.8125 51.300781 C 295.789062 51.285156 295.757812 51.277344 295.726562 51.277344 C 289.15625 51.039062 283.894531 46.792969 283.839844 46.75 C 283.566406 46.523438 283.398438 46.207031 283.363281 45.859375 C 283.328125 45.507812 283.433594 45.164062 283.65625 44.890625 C 283.90625 44.582031 284.28125 44.40625 284.679688 44.40625 C 284.980469 44.40625 285.28125 44.511719 285.515625 44.703125 C 285.714844 44.863281 290.457031 48.667969 296.148438 48.667969 C 299.507812 48.667969 302.535156 47.363281 305.140625 44.785156 C 305.644531 44.289062 306.515625 44.296875 307.011719 44.796875 C 307.261719 45.050781 307.394531 45.382812 307.394531 45.734375 C 307.390625 46.089844 307.253906 46.417969 307 46.667969 Z M 308.742188 37.484375 C 304.609375 37.484375 301.65625 40.042969 301.53125 40.148438 C 301.289062 40.363281 300.980469 40.480469 300.65625 40.480469 C 300.277344 40.480469 299.914062 40.316406 299.664062 40.03125 C 299.429688 39.765625 299.316406 39.425781 299.339844 39.070312 C 299.359375 38.71875 299.519531 38.398438 299.785156 38.164062 C 301.59375 36.574219 304.910156 34.875 308.777344 34.875 C 311.5625 34.875 314.230469 35.757812 316.699219 37.5 C 316.988281 37.703125 317.179688 38.007812 317.238281 38.355469 C 317.296875 38.703125 317.21875 39.054688 317.015625 39.34375 C 316.769531 39.695312 316.363281 39.902344 315.933594 39.902344 C 315.660156 39.902344 315.398438 39.820312 315.171875 39.660156 C 313.128906 38.214844 310.964844 37.484375 308.742188 37.484375 Z M 339.34375 56.226562 C 339.117188 56.5 338.796875 56.664062 338.445312 56.695312 C 332.75 57.195312 328.507812 55.941406 325.925781 52.984375 C 325.523438 52.527344 325.15625 52.011719 324.832031 51.453125 C 324.824219 51.441406 324.8125 51.425781 324.804688 51.414062 C 324.460938 51.070312 323.992188 50.886719 323.40625 50.867188 C 323.203125 50.859375 322.984375 50.871094 322.742188 50.90625 C 322.714844 50.898438 321.066406 51.261719 319.449219 51.207031 C 315.804688 51.089844 313.464844 49.378906 313.367188 49.308594 C 312.777344 48.875 312.652344 48.046875 313.085938 47.457031 C 313.34375 47.105469 313.761719 46.90625 314.199219 46.921875 C 314.460938 46.929688 314.714844 47.019531 314.929688 47.175781 C 315.003906 47.226562 316.765625 48.398438 319.523438 48.558594 C 320.855469 48.640625 322.164062 48.21875 322.320312 48.152344 C 323.339844 47.722656 323.300781 46.59375 323.253906 46.15625 C 323.035156 43.597656 323.488281 41.5625 323.507812 41.472656 C 323.664062 40.773438 324.382812 40.316406 325.089844 40.476562 C 325.796875 40.636719 326.246094 41.34375 326.085938 42.054688 C 326.074219 42.113281 324.871094 47.773438 327.929688 51.257812 C 329.925781 53.535156 333.40625 54.484375 338.214844 54.0625 C 338.957031 54 339.585938 54.546875 339.648438 55.261719 C 339.675781 55.613281 339.570312 55.957031 339.34375 56.226562 Z M 338.304688 35.761719 C 335.9375 38.03125 334.769531 41.644531 335.335938 44.964844 C 335.445312 45.609375 335.007812 46.226562 334.363281 46.335938 C 334.296875 46.347656 334.226562 46.355469 334.160156 46.355469 C 333.578125 46.355469 333.058594 45.941406 332.988281 45.363281 C 332.554688 41.816406 333.703125 38.542969 333.71875 38.507812 C 333.792969 38.320312 333.804688 38.160156 333.746094 38.027344 C 333.675781 37.863281 333.519531 37.773438 333.394531 37.722656 C 329.84375 37.332031 323.453125 35.980469 320.484375 31.347656 C 320.027344 30.671875 318.828125 31.019531 316.890625 31.015625 C 308.1875 31 306.953125 25.410156 306.90625 25.171875 C 306.84375 24.859375 306.902344 24.542969 307.078125 24.277344 C 307.253906 24.011719 307.523438 23.832031 307.835938 23.769531 C 307.914062 23.753906 307.992188 23.746094 308.070312 23.746094 C 308.628906 23.746094 309.117188 24.140625 309.234375 24.6875 C 309.273438 24.847656 310.226562 28.632812 316.914062 28.632812 C 317.242188 28.632812 317.585938 28.625 317.9375 28.605469 C 318.703125 28.511719 319.132812 28.105469 319.246094 27.371094 C 319.355469 24.792969 321.296875 22.878906 322.425781 22.152344 C 322.617188 22.03125 322.839844 21.964844 323.066406 21.964844 C 323.476562 21.964844 323.851562 22.167969 324.070312 22.511719 C 324.242188 22.78125 324.300781 23.097656 324.230469 23.40625 C 324.164062 23.71875 323.980469 23.984375 323.710938 24.15625 C 323.589844 24.238281 320.707031 26.164062 321.929688 29.007812 C 324.128906 34.132812 331.605469 35.21875 334.71875 35.449219 C 335.109375 35.417969 335.558594 35.183594 335.941406 34.804688 C 336.203125 34.5 336.433594 34.257812 336.660156 34.042969 C 339.683594 31.140625 339.863281 28.300781 339.871094 28.183594 C 339.90625 27.527344 340.464844 27.019531 341.113281 27.054688 C 341.765625 27.082031 342.273438 27.632812 342.25 28.285156 C 342.242188 28.441406 342.058594 32.164062 338.304688 35.761719 Z M 338.304688 35.761719 " fill-opacity="1" fill-rule="nonzero"/></g><g fill="#ffffff" fill-opacity="1"><g transform="translate(8.891862, 140.491003)"><g><path d="M 35.953125 -69.328125 C 44.660156 -69.328125 51.820312 -67.554688 57.4375 -64.015625 C 63.050781 -60.484375 65.921875 -55.253906 66.046875 -48.328125 L 66.046875 -47.140625 L 45.546875 -47.140625 L 45.546875 -47.53125 C 45.546875 -49.507812 44.820312 -51.160156 43.375 -52.484375 C 41.925781 -53.804688 39.710938 -54.46875 36.734375 -54.46875 C 33.835938 -54.46875 31.613281 -54.035156 30.0625 -53.171875 C 28.507812 -52.316406 27.734375 -51.265625 27.734375 -50.015625 C 27.734375 -48.234375 28.785156 -46.910156 30.890625 -46.046875 C 33.003906 -45.191406 36.40625 -44.300781 41.09375 -43.375 C 46.570312 -42.25 51.078125 -41.078125 54.609375 -39.859375 C 58.140625 -38.640625 61.226562 -36.640625 63.875 -33.859375 C 66.519531 -31.085938 67.875 -27.328125 67.9375 -22.578125 C 67.9375 -14.523438 65.210938 -8.550781 59.765625 -4.65625 C 54.316406 -0.757812 47.035156 1.1875 37.921875 1.1875 C 27.296875 1.1875 19.03125 -0.59375 13.125 -4.15625 C 7.21875 -7.71875 4.265625 -14.023438 4.265625 -23.078125 L 24.953125 -23.078125 C 24.953125 -19.640625 25.84375 -17.34375 27.625 -16.1875 C 29.40625 -15.03125 32.179688 -14.453125 35.953125 -14.453125 C 38.722656 -14.453125 41.015625 -14.75 42.828125 -15.34375 C 44.640625 -15.9375 45.546875 -17.160156 45.546875 -19.015625 C 45.546875 -20.660156 44.539062 -21.894531 42.53125 -22.71875 C 40.519531 -23.550781 37.238281 -24.429688 32.6875 -25.359375 C 27.132812 -26.546875 22.539062 -27.78125 18.90625 -29.0625 C 15.28125 -30.351562 12.113281 -32.484375 9.40625 -35.453125 C 6.695312 -38.421875 5.34375 -42.445312 5.34375 -47.53125 C 5.34375 -54.988281 8.226562 -60.484375 14 -64.015625 C 19.78125 -67.554688 27.097656 -69.328125 35.953125 -69.328125 Z M 35.953125 -69.328125 "/></g></g></g><g fill="#ffffff" fill-opacity="1"><g transform="translate(74.934366, 140.491003)"><g><path d="M 52.984375 0 L 50.109375 -9.609375 L 26.25 -9.609375 L 23.375 0 L 0.984375 0 L 25.84375 -68.140625 L 51.296875 -68.140625 L 76.15625 0 Z M 30.796875 -24.859375 L 45.546875 -24.859375 L 38.421875 -49.125 L 38.03125 -49.125 Z M 30.796875 -24.859375 "/></g></g></g><g fill="#ffffff" fill-opacity="1"><g transform="translate(146.521758, 140.491003)"><g><path d="M 52.984375 0 L 50.109375 -9.609375 L 26.25 -9.609375 L 23.375 0 L 0.984375 0 L 25.84375 -68.140625 L 51.296875 -68.140625 L 76.15625 0 Z M 30.796875 -24.859375 L 45.546875 -24.859375 L 38.421875 -49.125 L 38.03125 -49.125 Z M 30.796875 -24.859375 "/></g></g></g><g fill="#ffffff" fill-opacity="1"><g transform="translate(218.109141, 140.491003)"><g><path d="M 65.859375 0 L 65.859375 -24.5625 C 65.859375 -27.59375 65.972656 -30.707031 66.203125 -33.90625 C 66.429688 -37.113281 66.675781 -39.804688 66.9375 -41.984375 C 67.207031 -44.160156 67.375 -45.550781 67.4375 -46.15625 L 67.046875 -46.15625 L 54.46875 0 L 37.328125 0 L 24.65625 -46.046875 L 24.265625 -46.046875 C 24.328125 -45.453125 24.503906 -44.082031 24.796875 -41.9375 C 25.097656 -39.789062 25.378906 -37.113281 25.640625 -33.90625 C 25.910156 -30.707031 26.046875 -27.59375 26.046875 -24.5625 L 26.046875 0 L 5.9375 0 L 5.9375 -68.140625 L 36.84375 -68.140625 L 47.140625 -28.8125 L 47.53125 -28.8125 L 57.734375 -68.140625 L 87.546875 -68.140625 L 87.546875 0 Z M 65.859375 0 "/></g></g></g></svg>